<svg width="20" height="20" viewBox="0 0 20 20" fill="none" xmlns="http://www.w3.org/2000/svg">
<path d="M14.9992 2.71015H4.99922C4.577 2.66122 4.14918 2.70838 3.74777 2.84813C3.34636 2.98787 2.98173 3.21657 2.68118 3.51712C2.38063 3.81767 2.15193 4.18229 2.01219 4.58371C1.87245 4.98512 1.82528 5.41294 1.87422 5.83515V14.1685C1.82528 14.5907 1.87245 15.0185 2.01219 15.4199C2.15193 15.8213 2.38063 16.186 2.68118 16.4865C2.98173 16.7871 3.34636 17.0158 3.74777 17.1555C4.14918 17.2953 4.577 17.3424 4.99922 17.2935H14.9992C15.4214 17.3424 15.8492 17.2953 16.2507 17.1555C16.6521 17.0158 17.0167 16.7871 17.3172 16.4865C17.6178 16.186 17.8465 15.8213 17.9862 15.4199C18.126 15.0185 18.1732 14.5907 18.1242 14.1685V5.83515C18.1732 5.41294 18.126 4.98512 17.9862 4.58371C17.8465 4.18229 17.6178 3.81767 17.3172 3.51712C17.0167 3.21657 16.6521 2.98787 16.2507 2.84813C15.8492 2.70838 15.4214 2.66122 14.9992 2.71015ZM3.12422 14.1685V5.83515C3.12422 4.52099 3.68505 3.96015 4.99922 3.96015H6.87422V16.0435H4.99922C3.68505 16.0435 3.12422 15.4827 3.12422 14.1685ZM16.8742 14.1685C16.8742 15.4827 16.3134 16.0435 14.9992 16.0435H8.12422V3.96015H14.9992C16.3134 3.96015 16.8742 4.52099 16.8742 5.83515V14.1685Z" fill="#000201"/>
</svg>
