<svg width="17" height="16" viewBox="0 0 17 16" fill="none" xmlns="http://www.w3.org/2000/svg">
<path d="M16.3806 7.45406C15.7365 6.0572 14.7932 4.81908 13.6173 3.82739L15.6386 1.80606L14.6953 0.862061L12.5 3.05539C11.2849 2.35254 9.90365 1.98812 8.49997 2.00006C3.49997 2.00006 1.20464 6.17406 0.619309 7.45406C0.540734 7.6256 0.500061 7.81205 0.500061 8.00073C0.500061 8.1894 0.540734 8.37586 0.619309 8.54739C1.2634 9.94425 2.20679 11.1824 3.38264 12.1741L1.36198 14.1954L2.30464 15.1381L4.49997 12.9447C5.71507 13.6476 7.0963 14.012 8.49997 14.0001C13.5 14.0001 15.7953 9.82606 16.3806 8.54606C16.4591 8.37472 16.4996 8.1885 16.4996 8.00006C16.4996 7.81163 16.4591 7.6254 16.3806 7.45406ZM1.83331 8.00739C2.33331 6.91073 4.29531 3.33339 8.49997 3.33339C9.54637 3.32728 10.5791 3.57139 11.512 4.04539L10.3353 5.22206C9.69526 4.79713 8.92791 4.60672 8.16346 4.68316C7.39901 4.75959 6.68455 5.09815 6.14131 5.6414C5.59807 6.18464 5.2595 6.8991 5.18307 7.66355C5.10664 8.428 5.29704 9.19535 5.72197 9.83539L4.33597 11.2214C3.26956 10.353 2.41389 9.25411 1.83331 8.00739ZM10.5 8.00006C10.5 8.53049 10.2893 9.0392 9.91419 9.41427C9.53911 9.78935 9.03041 10.0001 8.49997 10.0001C8.20298 9.99891 7.91011 9.93054 7.64331 9.80006L10.3 7.14339C10.4304 7.41019 10.4988 7.70307 10.5 8.00006ZM6.49997 8.00006C6.49997 7.46963 6.71069 6.96092 7.08576 6.58585C7.46083 6.21077 7.96954 6.00006 8.49997 6.00006C8.79697 6.00121 9.08984 6.06959 9.35664 6.20006L6.69997 8.85673C6.5695 8.58993 6.50112 8.29705 6.49997 8.00006ZM8.49997 12.6667C7.45358 12.6728 6.42088 12.4287 5.48797 11.9547L6.66464 10.7781C7.30469 11.203 8.07204 11.3934 8.83649 11.317C9.60093 11.2405 10.3154 10.902 10.8586 10.3587C11.4019 9.81548 11.7404 9.10102 11.8169 8.33657C11.8933 7.57212 11.7029 6.80477 11.278 6.16473L12.6633 4.77939C13.7318 5.6486 14.588 6.7501 15.1666 8.00006C14.6573 9.10473 12.6946 12.6667 8.49997 12.6667Z" fill="#000201"/>
</svg>
