<svg width="36" height="36" viewBox="0 0 36 36" fill="none" xmlns="http://www.w3.org/2000/svg">
<path d="M22.9992 10.7102H12.9992C12.577 10.6612 12.1492 10.7084 11.7478 10.8481C11.3464 10.9879 10.9817 11.2166 10.6812 11.5171C10.3806 11.8177 10.1519 12.1823 10.0122 12.5837C9.87245 12.9851 9.82528 13.4129 9.87422 13.8352V22.1685C9.82528 22.5907 9.87245 23.0185 10.0122 23.4199C10.1519 23.8213 10.3806 24.186 10.6812 24.4865C10.9817 24.7871 11.3464 25.0158 11.7478 25.1555C12.1492 25.2953 12.577 25.3424 12.9992 25.2935H22.9992C23.4214 25.3424 23.8492 25.2953 24.2507 25.1555C24.6521 25.0158 25.0167 24.7871 25.3172 24.4865C25.6178 24.186 25.8465 23.8213 25.9862 23.4199C26.126 23.0185 26.1732 22.5907 26.1242 22.1685V13.8352C26.1732 13.4129 26.126 12.9851 25.9862 12.5837C25.8465 12.1823 25.6178 11.8177 25.3172 11.5171C25.0167 11.2166 24.6521 10.9879 24.2507 10.8481C23.8492 10.7084 23.4214 10.6612 22.9992 10.7102ZM11.1242 22.1685V13.8352C11.1242 12.521 11.685 11.9602 12.9992 11.9602H14.8742V24.0435H12.9992C11.685 24.0435 11.1242 23.4827 11.1242 22.1685ZM24.8742 22.1685C24.8742 23.4827 24.3134 24.0435 22.9992 24.0435H16.1242V11.9602H22.9992C24.3134 11.9602 24.8742 12.521 24.8742 13.8352V22.1685Z" fill="white"/>
</svg>
