<svg width="21" height="20" viewBox="0 0 21 20" fill="none" xmlns="http://www.w3.org/2000/svg">
<path d="M11.5997 0C17.1757 0 21.0672 4.47625 20.2912 9.99795C19.9222 12.6237 18.5635 15.0123 16.641 16.7963C17.0041 17.9022 17.7961 18.8165 19.5697 19.9959C17.5017 20.0385 15.6223 19.7552 13.6884 18.8293C12.1716 19.5734 10.5009 19.9959 8.78963 19.9959C3.21367 19.9959 -0.677463 15.5197 0.0985595 9.99795C0.874577 4.47629 6.02383 8.9582e-05 11.5997 0Z" fill="white"/>
<path d="M10.5314 4L9.02466 9.23525L3.63065 9.99877L8.81005 10.7623L8.8453 15.9975L10.3521 10.7623L15.7461 9.99877L10.5667 9.23525L10.5314 4Z" fill="#000201"/>
</svg>
